<svg width="74" height="70" viewBox="0 0 74 70" fill="none" xmlns="http://www.w3.org/2000/svg">
<ellipse cx="37.1667" cy="35" rx="36.4583" ry="35" fill="#58BEBF" fill-opacity="0.2"/>
<path fill-rule="evenodd" clip-rule="evenodd" d="M31.3595 40.1037C31.3595 37.0535 33.9445 34.5718 37.1219 34.5718C40.2993 34.5718 42.8843 37.0535 42.8843 40.1037C42.8843 43.1539 40.2993 45.6356 37.1219 45.6356C33.9445 45.6356 31.3595 43.154 31.3595 40.1037ZM33.1276 40.7647L35.9788 43.5019L41.1162 38.57L39.8214 37.327L35.9788 41.016L34.4223 39.5218L33.1276 40.7647Z" fill="#58BEBF"/>
<path d="M42.9759 23.4232H40.6878C40.6878 21.5326 39.0913 20 37.1219 20C35.1526 20 33.5561 21.5326 33.5561 23.4232H31.268V27.8115H42.9758V23.4232H42.9759Z" fill="#58BEBF"/>
<path fill-rule="evenodd" clip-rule="evenodd" d="M44.8069 29.5693V23.4232H48.4934V50H25.7505V23.4232H29.4369V29.5693H44.8069ZM29.5285 40.1037C29.5285 44.1233 32.9348 47.3935 37.1219 47.3935C41.309 47.3935 44.7154 44.1233 44.7154 40.1037C44.7154 36.0843 41.3089 32.8141 37.1219 32.8141C32.9349 32.8141 29.5285 36.0842 29.5285 40.1037Z" fill="#58BEBF"/>
</svg>
