<svg width="74" height="70" viewBox="0 0 74 70" fill="none" xmlns="http://www.w3.org/2000/svg">
<ellipse cx="36.9584" cy="35" rx="36.4583" ry="35" fill="#58BEBF" fill-opacity="0.2"/>
<path d="M53.8981 30.8582H46.2066C43.9217 30.8582 42.0694 32.6364 42.0694 34.8299V46.023C42.0694 48.2165 43.9217 49.9946 46.2066 49.9946H54.838L56.295 33.3609C56.413 32.014 55.306 30.8582 53.8981 30.8582Z" fill="#58BEBF"/>
<path d="M37.9324 20.0054H36.0124L35.2705 28.8327C35.0598 31.3401 32.8785 33.2719 30.2581 33.2719H28.8165V47.5809H33.7036C33.7036 47.6151 33.7035 47.6491 33.7034 47.683C33.7019 48.9594 34.7793 49.9946 36.1089 49.9946H41.3698C40.4156 48.9252 39.8373 47.5381 39.8373 46.0229V34.8298C39.8373 32.9734 40.7046 31.3088 42.0694 30.1865V23.977C42.0695 21.7836 40.2172 20.0054 37.9324 20.0054V20.0054Z" fill="#58BEBF"/>
<path d="M18.2084 31.8373H26.5844V49.0154H18.2084V31.8373Z" fill="#58BEBF"/>
</svg>
